<svg width="40" height="45" viewBox="0 0 40 45" fill="none" xmlns="http://www.w3.org/2000/svg">
<path d="M19.8743 0C8.97204 0 0.134277 9.87378 0.134277 22.0541C0.134277 34.2343 8.97204 44.1081 19.8743 44.1081C30.7765 44.1081 39.6143 34.2343 39.6143 22.0541C39.6143 9.87378 30.7765 0 19.8743 0ZM15.0421 31.195H11.0447V16.8231H15.0421V31.195ZM13.0187 15.0588C11.7562 15.0588 10.9399 14.0595 10.9399 12.8235C10.9399 11.5623 11.7809 10.5928 13.0701 10.5928C14.3594 10.5928 15.149 11.5623 15.1737 12.8235C15.1737 14.0595 14.3594 15.0588 13.0187 15.0588ZM29.6415 31.195H25.6441V23.2303C25.6441 21.3763 25.0643 20.1174 23.6187 20.1174C22.5145 20.1174 21.8586 20.9697 21.5686 21.7899C21.4617 22.0816 21.435 22.4951 21.435 22.9063V31.1927H17.4356V21.4062C17.4356 19.612 17.3842 18.1119 17.3307 16.8208H20.8037L20.9867 18.8172H21.0669C21.5933 17.8799 22.8826 16.4969 25.0396 16.4969C27.6695 16.4969 29.6415 18.4657 29.6415 22.6973V31.195Z" fill="#FFFBF0"/>
</svg>
