<svg width="40" height="41" viewBox="0 0 40 41" fill="none" xmlns="http://www.w3.org/2000/svg">
<path d="M19.3225 8.62412C22.2266 8.62412 24.9632 10.0625 26.9686 12.311V12.3176C26.9686 11.2379 27.6189 10.4211 28.5176 10.4211H28.7458C30.1641 10.4211 30.4482 11.9152 30.4482 12.3867L30.4541 29.1675C30.3554 30.2671 31.4705 30.8356 32.0899 30.129C34.4971 27.3625 37.3823 15.8929 30.5908 9.25232C24.2571 3.05399 15.7562 4.07797 11.2365 7.55764C6.43265 11.2657 3.36206 19.4563 6.34468 27.154C9.60191 35.5464 18.9135 38.0499 24.4556 35.553C27.2611 34.2873 28.5545 38.5187 25.6384 39.904C21.2435 41.9984 8.99564 41.7846 3.27528 30.7174C-0.589411 23.2414 -0.384943 10.0904 9.86938 3.27712C17.7069 -1.9384 28.048 -0.49341 34.2819 6.77804C40.7964 14.3868 40.4196 28.6229 34.0596 34.1572C31.1793 36.674 26.9021 34.2263 26.933 30.5593L26.9009 29.364C24.8954 31.5833 22.2266 32.8849 19.3225 32.8849C13.5772 32.8849 8.51894 27.2324 8.51894 20.8202C8.51894 14.339 13.5772 8.62678 19.3225 8.62678V8.62412ZM26.549 20.3567C26.3315 15.6592 23.2109 12.8303 19.4402 12.8303H19.2975C14.9514 12.8303 12.537 16.6553 12.537 20.9916C12.537 25.8538 15.453 28.9244 19.2797 28.9244C23.5509 28.9244 26.3552 25.4328 26.5597 21.3023L26.549 20.3567Z" fill="#FFFBF0"/>
</svg>
