<svg width="37" height="41" viewBox="0 0 37 41" fill="none" xmlns="http://www.w3.org/2000/svg">
<path d="M18.5791 0.978273C8.6473 0.973786 0.603027 9.95654 0.603027 21.0436C0.603027 29.811 5.63522 37.2637 12.6433 40.0008C13.5871 40.2655 13.4425 39.5162 13.4425 39.0047V35.5273C7.99268 36.2407 7.77179 32.2115 7.40632 31.5385C6.66736 30.1296 4.92035 29.7706 5.44244 29.0976C6.68342 28.3842 7.9485 29.2771 9.41438 31.6955C10.4746 33.4499 12.5429 33.1538 13.5911 32.8621C13.8201 31.8077 14.31 30.8654 14.9847 30.1341C9.33807 29.0034 6.98463 25.1536 6.98463 20.577C6.98463 18.356 7.63926 16.3145 8.92441 14.6678C8.10513 11.9532 9.00072 9.629 9.1212 9.28351C11.4546 9.05019 13.8803 11.1501 14.0691 11.3161C15.3944 10.9167 16.9084 10.7058 18.6032 10.7058C20.3061 10.7058 21.8242 10.9257 23.1615 11.3295C23.6154 10.9437 25.8644 9.13993 28.0331 9.35978C28.1495 9.70527 29.0251 11.9756 28.254 14.6543C29.5552 16.3055 30.2178 18.365 30.2178 20.5905C30.2178 25.1761 27.8483 29.0303 22.1856 30.1431C22.6706 30.676 23.0558 31.3115 23.3185 32.0126C23.5812 32.7136 23.7163 33.4661 23.7158 34.2261V39.2739C23.7479 39.6777 23.7158 40.077 24.3182 40.077C31.4307 37.3984 36.5513 29.8918 36.5513 21.0481C36.5513 9.95654 28.503 0.978273 18.5791 0.978273Z" fill="#FFFBF0"/>
</svg>
