<svg width="527" height="341" viewBox="0 0 527 341" fill="none" xmlns="http://www.w3.org/2000/svg">
<g clip-path="url(#clip0_399_34)">
<path d="M398.055 271.552C396.612 261.834 396.231 251.988 396.918 242.188L398.055 225.969C391.791 238.431 393.207 254.834 398.055 271.552Z" fill="#CACACA"/>
<path d="M402.939 274.266C402.245 268.467 402.062 262.618 402.393 256.787L402.939 247.132C399.926 254.551 400.607 264.314 402.939 274.266Z" fill="#CACACA"/>
<path d="M424.65 286.205V291.632C424.648 292.063 424.476 292.476 424.171 292.781C423.866 293.086 423.453 293.258 423.022 293.26H420.308C420.237 293.26 420.166 293.274 420.1 293.301C420.035 293.328 419.975 293.368 419.924 293.418C419.874 293.469 419.834 293.529 419.807 293.595C419.779 293.661 419.766 293.731 419.766 293.803V338.301C419.764 338.732 419.591 339.145 419.286 339.45C418.982 339.755 418.569 339.927 418.138 339.929H385.032C384.601 339.929 384.187 339.757 383.881 339.452C383.576 339.147 383.404 338.733 383.404 338.301V293.803C383.404 293.659 383.346 293.521 383.245 293.419C383.143 293.318 383.005 293.26 382.861 293.26H379.605C379.173 293.26 378.76 293.088 378.454 292.783C378.149 292.478 377.977 292.064 377.977 291.632V286.205C377.977 285.992 378.019 285.78 378.1 285.582C378.182 285.384 378.302 285.205 378.453 285.054C378.605 284.902 378.784 284.782 378.982 284.701C379.179 284.619 379.391 284.577 379.605 284.577H423.022C423.453 284.579 423.867 284.751 424.172 285.056C424.477 285.361 424.649 285.774 424.65 286.205Z" fill="#F2F2F2"/>
<path d="M419.815 294.4H383.453V296.028H419.815V294.4Z" fill="#E6E6E6"/>
<path d="M419.766 318.355C407.598 323.39 395.298 323.446 382.862 318.355V306.886C394.834 302.865 407.793 302.865 419.766 306.886V318.355Z" fill="#E6E6E6"/>
<path d="M245.024 135.873C255.933 135.873 264.776 127.03 264.776 116.122C264.776 105.214 255.933 96.3716 245.024 96.3716C234.115 96.3716 225.271 105.214 225.271 116.122C225.271 127.03 234.115 135.873 245.024 135.873Z" fill="#2F2E41"/>
<path d="M250.527 96.9153C253.945 96.9157 257.305 97.8031 260.278 99.4907C263.25 101.178 265.734 103.608 267.486 106.543C269.239 109.478 270.199 112.818 270.274 116.235C270.349 119.652 269.536 123.03 267.915 126.039C269.627 123.897 270.875 121.421 271.577 118.77C272.28 116.119 272.423 113.351 271.996 110.642C271.57 107.932 270.584 105.342 269.101 103.034C267.618 100.727 265.67 98.7544 263.382 97.2415C261.094 95.7286 258.517 94.7088 255.813 94.2471C253.109 93.7854 250.339 93.892 247.679 94.5601C245.018 95.2281 242.526 96.443 240.362 98.1272C238.197 99.8114 236.407 101.928 235.105 104.342C236.952 102.024 239.297 100.153 241.967 98.867C244.637 97.581 247.563 96.9139 250.527 96.9153Z" fill="#2F2E41"/>
<path d="M208.113 116.08C240.158 116.08 266.136 90.1049 266.136 58.0627C266.136 26.0205 240.158 0.045166 208.113 0.045166C176.068 0.045166 150.091 26.0205 150.091 58.0627C150.091 90.1049 176.068 116.08 208.113 116.08Z" fill="#2F2E41"/>
<path d="M162.575 22.0656C172.573 10.8228 186.548 3.90369 201.551 2.7687C216.554 1.63371 231.411 6.3716 242.987 15.9824C242.513 15.5314 242.043 15.0768 241.55 14.6386C230.048 4.42306 214.959 -0.806748 199.602 0.0990506C184.244 1.00485 169.875 7.97209 159.654 19.4689C149.433 30.9656 144.196 46.0507 145.095 61.4073C145.994 76.7639 152.956 91.1348 164.449 101.36C164.942 101.798 165.449 102.211 165.953 102.63C155.051 92.2604 148.605 78.0618 147.975 63.0304C147.345 47.9989 152.58 33.3107 162.575 22.0656Z" fill="#2F2E41"/>
<path d="M207.622 115.589C228.261 115.589 244.992 98.8588 244.992 78.2215C244.992 57.5841 228.261 40.8542 207.622 40.8542C186.983 40.8542 170.251 57.5841 170.251 78.2215C170.251 98.8588 186.983 115.589 207.622 115.589Z" fill="#FFB8B8"/>
<path d="M226.712 125.733L186.721 127.53C186.721 127.53 190.058 148.21 168.423 150.177C146.787 152.144 127.119 146.244 119.251 160.994C111.384 175.744 114.775 228.266 114.775 228.266C114.775 228.266 129.526 281.367 141.328 289.233C153.129 297.1 256.389 286.283 256.389 286.283L299.604 231.722L298.141 189.644C297.376 167.671 277.313 151.174 255.704 155.24C255.28 155.32 254.853 155.406 254.422 155.498C254.422 155.498 249.675 151.95 236.65 145.438C228.685 141.456 226.712 125.733 226.712 125.733Z" fill="#CACACA"/>
<path d="M139.903 149.194C139.903 149.194 149.408 166.438 145.475 191.022C141.541 215.606 158.046 267.6 158.046 267.6L169.847 264.65C169.847 264.65 161.98 213.516 163.946 201.715C165.913 189.915 166.456 155.094 156.622 149.194C146.787 143.294 139.903 149.194 139.903 149.194Z" fill="#2F2E41"/>
<path d="M253.73 158.236L257.864 267.108L265.732 272.025C265.732 272.025 277.041 152.548 271.141 152.548H259.134C258.424 152.548 257.72 152.688 257.064 152.96C256.407 153.232 255.811 153.63 255.308 154.133C254.806 154.635 254.407 155.231 254.135 155.888C253.863 156.544 253.723 157.248 253.723 157.958C253.723 158.051 253.726 158.143 253.73 158.236Z" fill="#2F2E41"/>
<path d="M163.455 265.141C166.17 265.141 168.372 262.94 168.372 260.225C168.372 257.509 166.17 255.308 163.455 255.308C160.739 255.308 158.538 257.509 158.538 260.225C158.538 262.94 160.739 265.141 163.455 265.141Z" fill="#6C63FF"/>
<path d="M261.798 270.058C264.514 270.058 266.715 267.857 266.715 265.141C266.715 262.426 264.514 260.225 261.798 260.225C259.082 260.225 256.881 262.426 256.881 265.141C256.881 267.857 259.082 270.058 261.798 270.058Z" fill="#6C63FF"/>
<path d="M175.66 31.512V68.8793H184.315L195.329 57.079L193.854 68.8793H232.109L229.749 57.079L234.469 68.8793H240.567V31.512H175.66Z" fill="#2F2E41"/>
<path d="M169.76 75.7631C171.389 75.7631 172.71 73.3417 172.71 70.3547C172.71 67.3677 171.389 64.9463 169.76 64.9463C168.13 64.9463 166.809 67.3677 166.809 70.3547C166.809 73.3417 168.13 75.7631 169.76 75.7631Z" fill="#FFB8B8"/>
<path d="M245.484 75.7631C247.113 75.7631 248.434 73.3417 248.434 70.3547C248.434 67.3677 247.113 64.9463 245.484 64.9463C243.855 64.9463 242.534 67.3677 242.534 70.3547C242.534 73.3417 243.855 75.7631 245.484 75.7631Z" fill="#FFB8B8"/>
<path d="M327.337 330.182V333.476C327.339 334.38 327.171 335.276 326.843 336.119C326.697 336.494 326.521 336.857 326.316 337.204C325.67 338.289 324.752 339.188 323.653 339.812C322.554 340.437 321.312 340.764 320.048 340.764H77.7007C76.437 340.764 75.1948 340.436 74.0959 339.812C72.997 339.188 72.0792 338.289 71.4324 337.204C71.2278 336.857 71.0518 336.494 70.906 336.119C70.5778 335.276 70.4103 334.38 70.4121 333.476V330.182C70.4119 329.225 70.6001 328.277 70.966 327.393C71.332 326.509 71.8685 325.706 72.545 325.029C73.2214 324.352 74.0245 323.816 74.9085 323.449C75.7925 323.083 76.7399 322.894 77.6968 322.894H91.6701V321.358C91.67 321.318 91.6778 321.279 91.693 321.242C91.7082 321.205 91.7305 321.172 91.7586 321.143C91.7867 321.115 91.8201 321.093 91.8569 321.077C91.8937 321.062 91.9332 321.054 91.973 321.054H99.2626C99.3431 321.054 99.4203 321.086 99.4773 321.143C99.5343 321.2 99.5664 321.277 99.5665 321.357V322.894H104.12V321.358C104.12 321.318 104.128 321.279 104.143 321.242C104.158 321.205 104.18 321.172 104.208 321.143C104.237 321.115 104.27 321.093 104.307 321.077C104.343 321.062 104.383 321.054 104.423 321.054H111.712C111.793 321.054 111.87 321.086 111.927 321.143C111.984 321.2 112.016 321.277 112.016 321.357V322.894H116.575V321.358C116.575 321.318 116.583 321.279 116.598 321.242C116.613 321.205 116.635 321.172 116.664 321.143C116.692 321.115 116.725 321.093 116.762 321.077C116.799 321.062 116.838 321.054 116.878 321.054H124.168C124.248 321.054 124.325 321.086 124.382 321.143C124.439 321.2 124.471 321.277 124.472 321.357V322.894H129.025V321.358C129.025 321.318 129.033 321.279 129.048 321.242C129.063 321.205 129.085 321.172 129.113 321.143C129.141 321.115 129.175 321.093 129.212 321.078C129.248 321.062 129.288 321.054 129.328 321.054H136.617C136.698 321.054 136.775 321.086 136.832 321.143C136.889 321.2 136.921 321.277 136.921 321.357V322.894H141.475V321.358C141.475 321.318 141.482 321.279 141.498 321.242C141.513 321.205 141.535 321.172 141.563 321.143C141.591 321.115 141.625 321.093 141.661 321.078C141.698 321.062 141.738 321.054 141.778 321.054H149.067C149.148 321.054 149.225 321.086 149.282 321.143C149.339 321.2 149.371 321.277 149.371 321.357V322.894H153.93V321.358C153.93 321.318 153.938 321.279 153.953 321.242C153.968 321.205 153.99 321.172 154.018 321.143C154.046 321.115 154.08 321.093 154.117 321.078C154.153 321.062 154.193 321.054 154.233 321.054H161.522C161.603 321.054 161.68 321.086 161.737 321.143C161.794 321.2 161.826 321.277 161.826 321.357V322.894H166.38V321.358C166.38 321.318 166.387 321.279 166.402 321.242C166.418 321.205 166.44 321.172 166.468 321.143C166.496 321.115 166.53 321.093 166.566 321.078C166.603 321.062 166.643 321.054 166.683 321.054H223.777C223.817 321.054 223.856 321.062 223.893 321.077C223.93 321.092 223.963 321.115 223.991 321.143C224.02 321.171 224.042 321.204 224.057 321.241C224.073 321.278 224.081 321.317 224.081 321.357V322.894H228.639V321.358C228.639 321.318 228.647 321.279 228.662 321.242C228.677 321.205 228.7 321.172 228.728 321.143C228.756 321.115 228.789 321.093 228.826 321.078C228.863 321.062 228.902 321.054 228.942 321.054H236.232C236.312 321.055 236.389 321.087 236.446 321.144C236.503 321.201 236.535 321.278 236.536 321.358V322.894H241.089V321.358C241.089 321.318 241.097 321.279 241.112 321.242C241.127 321.205 241.15 321.172 241.178 321.143C241.206 321.115 241.239 321.093 241.276 321.078C241.313 321.062 241.352 321.054 241.392 321.054H248.682C248.721 321.054 248.761 321.062 248.798 321.077C248.835 321.092 248.868 321.115 248.896 321.143C248.925 321.171 248.947 321.204 248.962 321.241C248.978 321.278 248.986 321.317 248.986 321.357V322.894H253.539V321.358C253.539 321.318 253.547 321.279 253.562 321.242C253.577 321.205 253.599 321.172 253.627 321.143C253.656 321.115 253.689 321.093 253.726 321.078C253.763 321.062 253.802 321.054 253.842 321.054H261.131C261.171 321.054 261.211 321.062 261.248 321.077C261.284 321.092 261.318 321.115 261.346 321.143C261.374 321.171 261.397 321.204 261.412 321.241C261.427 321.278 261.435 321.317 261.435 321.357V322.894H265.994V321.358C265.994 321.318 266.002 321.279 266.017 321.242C266.032 321.205 266.054 321.172 266.083 321.143C266.111 321.115 266.144 321.093 266.181 321.078C266.218 321.062 266.257 321.054 266.297 321.054H273.587C273.666 321.055 273.743 321.088 273.798 321.145C273.854 321.202 273.886 321.278 273.885 321.358V322.894H278.444V321.358C278.444 321.318 278.452 321.279 278.467 321.242C278.482 321.205 278.504 321.172 278.532 321.143C278.561 321.115 278.594 321.093 278.631 321.078C278.668 321.062 278.707 321.054 278.747 321.054H286.036C286.076 321.054 286.116 321.062 286.153 321.077C286.189 321.092 286.223 321.115 286.251 321.143C286.279 321.171 286.302 321.204 286.317 321.241C286.332 321.278 286.34 321.317 286.34 321.357V322.894H290.894V321.358C290.894 321.318 290.901 321.279 290.917 321.242C290.932 321.205 290.954 321.172 290.982 321.144C291.01 321.115 291.044 321.093 291.08 321.078C291.117 321.062 291.157 321.054 291.197 321.054H298.486C298.526 321.054 298.565 321.062 298.602 321.077C298.639 321.092 298.673 321.115 298.701 321.143C298.729 321.171 298.751 321.204 298.767 321.241C298.782 321.278 298.79 321.317 298.79 321.357V322.894H320.048C321.981 322.893 323.834 323.661 325.201 325.027C326.568 326.393 327.336 328.246 327.337 330.178L327.337 330.182Z" fill="#3F3D56"/>
<path d="M527 339.915H0V341H527V339.915Z" fill="#3F3D56"/>
<path d="M307.822 191.458H85.8301C85.0277 191.458 84.2332 191.616 83.4919 191.923C82.7506 192.23 82.077 192.68 81.5096 193.248C80.9422 193.815 80.4922 194.489 80.1851 195.23C79.878 195.971 79.72 196.766 79.72 197.568V321.247C79.72 322.868 80.3637 324.422 81.5096 325.567C82.6555 326.713 84.2096 327.357 85.8301 327.357H307.822C309.443 327.357 310.997 326.713 312.143 325.567C313.289 324.422 313.933 322.868 313.933 321.247V197.568C313.933 195.948 313.289 194.393 312.143 193.248C310.997 192.102 309.443 191.458 307.822 191.458Z" fill="#3F3D56"/>
<path d="M197.004 248.204C204.497 248.204 210.572 242.131 210.572 234.638C210.572 227.145 204.497 221.071 197.004 221.071C189.511 221.071 183.436 227.145 183.436 234.638C183.436 242.131 189.511 248.204 197.004 248.204Z" fill="#6C63FF"/>
<path d="M280.995 145.01L349.489 75.9816H381.825V74.8962H349.036L348.877 75.0574L280.224 144.247L280.995 145.01Z" fill="#3F3D56"/>
<path d="M500.679 47.6416H421.321V54.7124H500.679V47.6416Z" fill="#6C63FF"/>
<path d="M411.65 59.1835H394.85V42.385H411.65V59.1835ZM395.936 58.0982H410.564V43.4703H395.936L395.936 58.0982Z" fill="#3F3D56"/>
<path d="M500.679 71.2112H421.321V78.282H500.679V71.2112Z" fill="#6C63FF"/>
<path d="M411.65 82.7528H394.85V65.9546H411.65V82.7528ZM395.936 81.6675H410.564V67.0399H395.936L395.936 81.6675Z" fill="#3F3D56"/>
<path d="M500.679 94.7805H421.321V101.851H500.679V94.7805Z" fill="#6C63FF"/>
<path d="M411.65 106.322H394.85V89.5239H411.65V106.322ZM395.936 105.237H410.564V90.6093H395.936L395.936 105.237Z" fill="#3F3D56"/>
</g>
<defs>
<clipPath id="clip0_399_34">
<rect width="527" height="341" fill="white"/>
</clipPath>
</defs>
</svg>
